<svg width="35" height="35" viewBox="0 0 35 35" fill="none" xmlns="http://www.w3.org/2000/svg">
<path d="M8.07549 27.0375C5.60653 28.1021 4.40122 29.5488 3.91195 30.5594C3.71799 30.959 4.04392 31.3542 4.48799 31.3542H19.9697C20.5107 31.3542 20.8534 30.7884 20.5377 30.348C19.2616 28.5702 17.341 27.4481 16.3253 27.0288C16.2426 26.9954 16.1541 26.9785 16.065 26.9792H8.35767C8.26063 26.9793 8.16461 26.9991 8.07549 27.0375Z" stroke="#9333EA" stroke-width="4" stroke-linecap="round" stroke-linejoin="round"/>
<path d="M10.7421 13.7492L14.3879 7.43463L20.7025 11.0805L17.0566 17.395L10.7421 13.7492Z" stroke="#9333EA" stroke-width="4" stroke-linejoin="round"/>
<path d="M19.9733 12.3434L20.7025 11.0804C20.3675 10.8871 19.9695 10.8347 19.5959 10.9348C19.2223 11.0349 18.9038 11.2793 18.7104 11.6142L19.9733 12.3434ZM17.7858 16.1321L16.5229 15.4029C16.3295 15.7379 16.2771 16.1359 16.3772 16.5095C16.4773 16.8831 16.7217 17.2016 17.0566 17.395L17.7858 16.1321ZM19.2441 13.6063L28.716 19.075L30.1743 16.5492L20.7025 11.0804L19.2441 13.6063V13.6063ZM27.9868 20.3379L18.515 14.8692L17.0566 17.395L26.5285 22.8638L27.9868 20.3379ZM19.0487 16.8613L21.2362 13.0725L18.7104 11.6142L16.5229 15.4029L19.0487 16.8613ZM28.9836 20.0711C28.9357 20.1541 28.872 20.2269 28.7959 20.2852C28.7199 20.3436 28.6331 20.3864 28.5406 20.4111C28.448 20.4359 28.3514 20.4422 28.2564 20.4297C28.1614 20.4171 28.0698 20.3859 27.9868 20.3379L26.5285 22.8638C27.3659 23.3472 28.361 23.4782 29.295 23.228C30.2289 22.9778 31.0252 22.3668 31.5087 21.5294L28.9829 20.0711H28.9836ZM28.716 19.075C28.799 19.1228 28.8718 19.1865 28.9301 19.2625C28.9885 19.3384 29.0313 19.4251 29.0562 19.5176C29.081 19.6101 29.0874 19.7066 29.0749 19.8016C29.0625 19.8965 29.0315 19.9881 28.9836 20.0711L31.5095 21.5294C31.9929 20.692 32.1239 19.6969 31.8737 18.763C31.6234 17.829 31.0124 17.0327 30.1751 16.5492L28.7167 19.075H28.716Z" fill="#9333EA"/>
<path d="M22.2587 6.9271L17.2069 4.01044C16.1607 3.40638 14.8228 3.76485 14.2188 4.81112C13.6147 5.85738 13.9732 7.19524 15.0194 7.7993L20.0712 10.716C21.1175 11.32 22.4554 10.9615 23.0594 9.91528C23.6635 8.86902 23.305 7.53116 22.2587 6.9271Z" stroke="#9333EA" stroke-width="4" stroke-linejoin="round"/>
<path d="M16.4254 17.0304L11.3736 14.1138C10.3273 13.5097 8.98944 13.8682 8.38538 14.9145C7.78131 15.9607 8.13979 17.2986 9.18606 17.9026L14.2379 20.8193C15.2841 21.4234 16.622 21.0649 17.2261 20.0186C17.8301 18.9724 17.4716 17.6345 16.4254 17.0304Z" stroke="#9333EA" stroke-width="4" stroke-linejoin="round"/>
</svg>
